<?xml version="1.0" encoding="utf-8"?>
<!-- Generator: Adobe Illustrator 23.1.1, SVG Export Plug-In . SVG Version: 6.00 Build 0)  -->
<svg version="1.1" id="Capa_1" xmlns="http://www.w3.org/2000/svg" xmlns:xlink="http://www.w3.org/1999/xlink" x="0px" y="0px"
	 viewBox="0 0 60 60" style="enable-background:new 0 0 60 60;" xml:space="preserve">
<style type="text/css">
	.st0{fill:#CCDFEA;}
	.st1{fill:#3A9FE2;}
	.st2{fill:#242E4C;}
</style>
<g>
	<g>
		<path class="st0" d="M39.5,44.7v-7.6l9.7-5.3l-3-1.6L35.6,36v7.6c0,6,3.6,11.4,9.1,13.9l1.5,0.6l0.8-0.4
			C42.4,55,39.5,50,39.5,44.7z"/>
		<path class="st0" d="M17.3,16.6c0-6.7,5.4-12.1,12.1-12.1c0.4,0,0.8,0,1.1,0.1c-4-3.2-9.7-3.4-14-0.7c-4.3,2.8-6.4,8-5.2,13
			s5.5,8.7,10.6,9.2C19,23.8,17.3,20.3,17.3,16.6z"/>
		<path class="st0" d="M29.3,34.2c1.4,0,2.8,0.1,4.2,0.4c-3.2-2-6.8-3-10.5-3c-11.1,0-20.1,8.9-20.1,21l6.4,0
			C10.5,41.8,19,34.2,29.3,34.2z"/>
	</g>
	<path class="st1" d="M23,27.4c7.4,0,13.3-6,13.3-13.3c0-7.4-6-13.3-13.3-13.3S9.7,6.7,9.7,14.1C9.7,21.4,15.7,27.4,23,27.4z
		 M23,3.2c6,0,10.8,4.8,10.8,10.8c0,6-4.8,10.8-10.8,10.8S12.2,20,12.2,14.1C12.2,8.1,17.1,3.3,23,3.2z"/>
	<path class="st1" d="M4.2,51.3c0.3-5,2.2-9.5,5.5-12.9c3.5-3.6,8.2-5.6,13.3-5.6h0c4.2,0,8.3,1.4,11.6,4c0.2,0.2,0.4,0.3,0.6,0.5
		l1.6-1.9c-0.2-0.2-0.4-0.4-0.6-0.5c-3.8-3-8.3-4.6-13.2-4.6c-5.8,0-11.1,2.3-15.1,6.3c-4,4.1-6.2,9.8-6.2,15.9
		c0,0.7,0.6,1.3,1.3,1.3l35.4-0.1v-2.5L4.2,51.3z"/>
	<path class="st1" d="M50.5,40.5l-5.7,4.6l-2.1-2.4c-0.5-0.5-1.2-0.6-1.8-0.1c-0.5,0.5-0.6,1.2-0.1,1.8l2.9,3.3
		c0.2,0.3,0.6,0.4,1,0.4c0.3,0,0.6-0.1,0.8-0.3l6.7-5.4c0.5-0.4,0.6-1.2,0.2-1.8C51.9,40.1,51.1,40,50.5,40.5z"/>
	<path class="st2" d="M57.7,34.8l-10.9-5.8c-0.4-0.2-0.8-0.2-1.2,0L35,34.9c-0.4,0.2-0.7,0.6-0.7,1.1v7.6c0,6.5,3.9,12.4,9.8,15
		l1.5,0.6c0.2,0.1,0.3,0.1,0.5,0.1c0.2,0,0.3,0,0.5-0.1l1.7-0.7c6.1-2.5,10-8.5,10-15.1V36C58.3,35.5,58.1,35.1,57.7,34.8z
		 M55.8,43.4c0,5.6-3.3,10.6-8.5,12.8h0l-1.1,0.5l-1-0.4c-5-2.2-8.3-7.2-8.3-12.7v-6.8l9.3-5.1l9.6,5.1V43.4z"/>
</g>
</svg>
